<svg width="42" height="50" xmlns="http://www.w3.org/2000/svg"><g fill="#FFF" fill-rule="nonzero"><path d="M41.934 46c-.308-1.544-1.74-2.667-3.404-2.667l-2.275-15.008c1.413-.094 2.65-1 3.058-2.268a3.321 3.321 0 00-.477-3.018 3.386 3.386 0 00-2.715-1.372h-.882c-.407-6.726-5.665-11.819-12.774-12.435.245-.043.576-.065 1.055-.065h11.34c2.362 0 3.552-.007 3.748-1.887 1.48-.51 2.553-1.891 2.553-3.53 0-2.067-1.696-3.75-3.78-3.75-2.084 0-3.78 1.683-3.78 3.75 0 1.843 1.35 3.372 3.12 3.683-.415.066-1.228.067-1.86.067H23.52c-2.33 0-3.072.747-3.284 1.7-7.458.335-13.057 5.524-13.476 12.467H5.99c-1.673 0-3.106 1.13-3.408 2.688-.198 1.017.051 2.036.683 2.796.584.703 1.454 1.125 2.479 1.177L3.476 43.333H3.47C1.807 43.333.374 44.456.066 46c-.198.99.054 2.002.695 2.777A3.363 3.363 0 003.36 50h35.282a3.362 3.362 0 002.597-1.223c.64-.774.894-1.786.696-2.776zM35.281 3.75c0-1.15.942-2.083 2.1-2.083 1.158 0 2.1.934 2.1 2.083 0 1.15-.942 2.083-2.1 2.083-1.158 0-2.1-.934-2.1-2.083zM21 10.833c6.88 0 12.14 4.601 12.572 10.834H8.428C8.86 15.434 14.12 10.833 21 10.833zM39.94 47.72c-.324.39-.796.613-1.3.613H3.36c-.503 0-.975-.224-1.299-.613a1.643 1.643 0 01-.346-1.395C1.864 45.57 2.62 45 3.47 45h1.453l2.514-16.634a1.47 1.47 0 00-.345-1.186c-.284-.326-.694-.513-1.213-.513-.54 0-1.008-.206-1.317-.577-.317-.38-.434-.885-.33-1.421.148-.762.903-1.336 1.758-1.336h30.131c.533 0 1.04.259 1.358.69.326.441.408.985.232 1.528-.21.656-.91 1.116-1.7 1.116-.43 0-.835.185-1.114.506a1.445 1.445 0 00-.338 1.165L37.079 45h1.452c.85 0 1.605.57 1.756 1.326.1.506-.022 1-.347 1.394z"/><path d="M9.883 30L8 45h27l-1.883-15H9.883zm21.756 1.667l.628 5H10.733l.628-5h20.278zM9.896 43.334l.628-5h21.952l.628 5H9.896z"/><path d="M18.857 36h4.286c.474 0 .857-.447.857-1 0-.553-.383-1-.857-1h-4.286c-.474 0-.857.447-.857 1 0 .553.383 1 .857 1zM23.143 40h-4.286c-.474 0-.857.447-.857 1 0 .553.383 1 .857 1h4.286c.474 0 .857-.447.857-1 0-.553-.383-1-.857-1zM14.472 14.166c-1.062.693-1.864 1.57-2.386 2.61-.22.437-.004.95.48 1.147.13.053.263.077.396.077.366 0 .717-.19.878-.51.382-.762.976-1.408 1.763-1.922.43-.28.526-.823.214-1.21-.312-.386-.912-.475-1.345-.192zM21 13c-1.11 0-2.169.066-3.146.197-.546.074-.924.534-.843 1.03.073.449.5.773.988.773.05 0 .098-.004.147-.01.88-.119 1.841-.178 2.854-.178.553 0 1-.405 1-.906 0-.5-.447-.906-1-.906zM21.75 28h4.5c.415 0 .75-.447.75-1 0-.553-.335-1-.75-1h-4.5c-.415 0-.75.447-.75 1 0 .553.335 1 .75 1zM30 28h2a.999.999 0 100-2h-2a1 1 0 100 2z"/></g></svg>