<svg width="60" height="117" xmlns="http://www.w3.org/2000/svg"><g fill="#85BA59" fill-rule="nonzero"><path d="M59.999 37.604a1.977 1.977 0 00-.124-.734c-.002-.005 0-.011-.002-.015L53.648 21.43c-1.29-3.187-4.238-5.303-7.64-5.594V6.372c0-3.515-2.884-6.372-6.43-6.372H20.42c-3.546 0-6.43 2.857-6.43 6.372v9.464c-3.402.29-6.35 2.409-7.638 5.594L.127 36.855c-.003.006 0 .012-.003.015-.092.233-.126.48-.123.734 0 .047-.003.088.002.131.001.038-.004.076.001.114l9.238 69.333C9.768 112.78 14.444 117 20.115 117H39.88c5.673 0 10.35-4.22 10.87-9.743l9.247-69.406c.006-.038-.002-.076.002-.116.003-.043 0-.084 0-.13zM17.992 6.372c0-1.327 1.09-2.406 2.428-2.406h19.158c1.338 0 2.427 1.08 2.427 2.406v9.405H17.992V6.372zm-7.924 16.532a5.047 5.047 0 014.71-3.16h30.443a5.048 5.048 0 014.71 3.158l5.349 13.252c-.854.192-1.709.378-2.567.552-.933.19-1.863.388-2.797.552-1.3.227-2.608.412-3.917.596-.9.128-1.797.272-2.7.377-1.408.165-2.823.272-4.237.385-.806.064-1.613.155-2.421.2-1.922.111-3.843.16-5.765.174-.579.005-1.157.005-1.735 0a116.053 116.053 0 01-5.764-.172c-.85-.049-1.699-.144-2.55-.211-1.368-.11-2.736-.215-4.1-.373-.938-.11-1.868-.26-2.802-.391-1.273-.18-2.548-.358-3.815-.58-.952-.168-1.899-.37-2.847-.562a102.74 102.74 0 01-2.54-.547l5.345-13.25zm36.706 83.907c-.334 3.548-3.3 6.223-6.893 6.223H20.115c-3.593 0-6.557-2.675-6.901-6.297L4.347 40.18c.799.177 1.605.304 2.408.465.922.184 1.844.373 2.771.535 1.4.244 2.806.446 4.213.641.854.117 1.704.25 2.56.35 1.6.183 3.203.314 4.808.435.67.05 1.339.125 2.009.165 4.586.266 9.187.266 13.771 0 .656-.038 1.308-.11 1.963-.16 1.621-.122 3.24-.255 4.855-.44.844-.098 1.685-.231 2.527-.346a116.65 116.65 0 004.244-.647c.922-.161 1.84-.349 2.757-.532.806-.16 1.614-.287 2.414-.466l-8.873 66.631z"/><path d="M25.074 106.004c-3.6-.218-4.193-3.84-4.251-4.268l-2.736-19.999c-.15-1.096-1.172-1.868-2.305-1.718-1.125.145-1.915 1.152-1.763 2.246l2.732 19.97c.306 2.533 2.387 7.413 8.069 7.761.043.002.084.004.13.004 1.073 0 1.978-.814 2.046-1.876.07-1.1-.79-2.052-1.922-2.12z"/></g></svg>