<svg width="88" height="117" xmlns="http://www.w3.org/2000/svg"><g fill="#578B84" fill-rule="nonzero"><path d="M31 46h-8a2 2 0 100 4h8a2 2 0 100-4zM23 59h4c1.106 0 2-.894 2-2 0-1.106-.894-2-2-2h-4c-1.106 0-2 .894-2 2 0 1.106.894 2 2 2zM31 79h-8c-1.105 0-2 .894-2 2 0 1.106.895 2 2 2h8a2 2 0 100-4zM31 62h-8c-1.105 0-2 .894-2 2 0 1.106.895 2 2 2h8a2 2 0 100-4zM23 74h4c1.106 0 2-.894 2-2 0-1.106-.894-2-2-2h-4c-1.106 0-2 .894-2 2 0 1.106.894 2 2 2z"/><path d="M81.896 30.258h-6.65l.14-.948a8.531 8.531 0 00-2.367-6.43c-1.437-1.51-3.321-2.387-5.366-2.613v-4.13c0-3.336-2.739-6.051-6.104-6.051h-4.07V6.052C57.479 2.715 54.74 0 51.375 0H26.96c-3.366 0-6.105 2.715-6.105 6.052v4.035h-4.069c-3.365 0-6.104 2.714-6.104 6.05v4.036H6.139a6.134 6.134 0 00-5.412 3.215 6.035 6.035 0 00.304 6.246L8.71 41.049l4.767 45.63c.31 1.535.99 2.91 1.903 4.097h-4.698c-3.366 0-6.105 2.715-6.105 6.051V117h69.18V96.827c0-3.335-2.737-6.05-6.103-6.05h-3.292c1.737-1.93 2.847-4.407 2.999-7.114l.44-2.973h14.095c3.366 0 6.105-2.715 6.105-6.052V36.31c0-3.336-2.738-6.052-6.104-6.052zM24.924 6.052c0-1.114.911-2.017 2.035-2.017h24.416c1.123 0 2.035.903 2.035 2.017v4.035H24.924V6.052zM14.75 16.138c0-1.113.91-2.017 2.034-2.017H61.55c1.122 0 2.034.904 2.034 2.017v4.035H14.751v-4.035zM67.653 94.81c1.123 0 2.035.903 2.035 2.017v16.138H8.646V96.827c0-1.114.911-2.017 2.035-2.017h56.972zm-3.406-17.857l-.573 3.737h.022l-.379 2.563c-.244 4.218-3.77 7.522-8.031 7.522H23.483c-2.915 0-5.447-2.057-5.986-4.7L12.654 39.64 4.418 27.394c-.62-.922-.28-1.779-.104-2.104.177-.325.706-1.084 1.823-1.084h60.54a4.62 4.62 0 013.38 1.446c.886.931 1.335 2.15 1.281 3.253l-7.09 48.048zm19.684-2.316a2.027 2.027 0 01-2.035 2.018H68.41l6.516-42.362h6.97c1.124 0 2.035.903 2.035 2.017v38.327z"/><path d="M20 96c-3.86 0-7 3.364-7 7.5s3.14 7.5 7 7.5 7-3.364 7-7.5-3.14-7.5-7-7.5zm0 10.715c-1.655 0-3-1.442-3-3.215 0-1.772 1.346-3.214 3-3.214s3 1.442 3 3.214c0 1.773-1.346 3.215-3 3.215zM52 103.5c0 4.136 3.14 7.5 7 7.5s7-3.364 7-7.5-3.14-7.5-7-7.5-7 3.364-7 7.5zm7-3.214c1.655 0 3 1.442 3 3.214 0 1.773-1.346 3.214-3 3.214s-3-1.442-3-3.214 1.346-3.214 3-3.214zM35 96c-1.106 0-2 .958-2 2.143v10.714c0 1.185.894 2.143 2 2.143 1.106 0 2-.958 2-2.143V98.143C37 96.958 36.106 96 35 96zM44 96c-1.106 0-2 .958-2 2.143v10.714c0 1.185.894 2.143 2 2.143 1.106 0 2-.958 2-2.143V98.143C46 96.958 45.106 96 44 96z"/></g></svg>