<svg width="117" height="117" xmlns="http://www.w3.org/2000/svg"><g fill="#FF915E" fill-rule="nonzero"><path d="M58.5 0C26.244 0 0 26.244 0 58.5S26.244 117 58.5 117 117 90.756 117 58.5 90.756 0 58.5 0zm0 112.746c-29.911 0-54.246-24.335-54.246-54.246S28.59 4.254 58.5 4.254 112.746 28.59 112.746 58.5c0 29.912-24.335 54.246-54.246 54.246z"/><path d="M66.502 58.475l-14.72 11.814a2.065 2.065 0 00-.298 2.947A2.16 2.16 0 0053.14 74c.478 0 .958-.155 1.357-.474l14.72-11.815a2.065 2.065 0 00.299-2.947 2.177 2.177 0 00-3.014-.29zM69.218 69.711a2.067 2.067 0 00.298-2.948 2.182 2.182 0 00-3.014-.29l-14.72 11.816a2.065 2.065 0 00-.297 2.947A2.163 2.163 0 0053.14 82c.477 0 .957-.155 1.357-.475l14.72-11.814zM76.482 65.496L63.786 76.11a2.227 2.227 0 00-.299 3.09c.427.526 1.045.8 1.667.8.48 0 .962-.163 1.364-.498l12.696-10.613c.918-.77 1.05-2.15.299-3.089a2.131 2.131 0 00-3.031-.304zM74.502 76.475l-14.72 11.813a2.066 2.066 0 00-.297 2.948A2.162 2.162 0 0061.14 92c.478 0 .956-.155 1.357-.475l14.72-11.813a2.066 2.066 0 00.297-2.948 2.176 2.176 0 00-3.013-.289zM15.698 51.06a2.126 2.126 0 002.076 2.512c.512 0 .981-.21 1.356-.532a14.378 14.378 0 005.066 3.566c.061.032.103.083.166.11.13.052.267.069.398.116.285.105.57.2.858.283-3.186 3.902-4.05 9.732-1.738 15.02 2.408 5.513 7.569 8.867 12.79 8.865 1.64 0 3.286-.33 4.854-1.027 6.564-2.925 9.33-11.195 6.166-18.434-1.517-3.47-4.16-6.204-7.443-7.693a13.5 13.5 0 00-1.834-.661c.24-.294.469-.598.684-.915.064-.094.12-.19.183-.287.236-.372.455-.76.658-1.16.067-.135.139-.267.201-.405.224-.488.43-.985.599-1.508l.003-.01c.03-.096.05-.197.08-.29.136-.451.248-.908.339-1.37.015-.078.044-.153.056-.231.007-.03-.006-.058-.002-.088.405-2.317.247-4.73-.467-7.045-.005-.02 0-.037-.006-.054-.014-.04-.032-.078-.046-.119a16.115 16.115 0 00-.568-1.53 15.923 15.923 0 00-1.327-2.43c-.39-.587-.848-1.11-1.307-1.629-.135-.153-.24-.33-.384-.476-.001 0-.001-.003-.003-.003a14.416 14.416 0 00-4.423-3.15c-.438-.2-.883-.371-1.33-.52a2.138 2.138 0 00-.43-2.329 2.092 2.092 0 00-2.979-.025c-.562.557-1.091 1.15-1.624 1.742a11.93 11.93 0 00-3.837.988c-3.218 1.434-5.625 4.169-6.777 7.7-1.101 3.39-.908 7.12.534 10.536-.194.82-.39 1.643-.542 2.483zm28.135 12.193c2.228 5.095.428 10.85-4.007 12.825-4.436 1.977-9.863-.563-12.088-5.658-2.225-5.096-.428-10.853 4.007-12.827a7.79 7.79 0 013.18-.672c1.195 0 2.415.269 3.595.804 2.33 1.058 4.218 3.023 5.313 5.528zM19.712 39.365c.77-2.37 2.36-4.198 4.47-5.136a7.778 7.778 0 013.03-.656h.064c.211.002.398.03.598.043a8.023 8.023 0 011.616.255c.491.13.98.272 1.463.49a10.21 10.21 0 013.118 2.22c.004.004.006.012.01.016a11.106 11.106 0 012.186 3.29c1.093 2.5 1.258 5.223.467 7.669-.01.036-.029.068-.04.104a9.23 9.23 0 01-.819 1.771 8.471 8.471 0 01-.774 1.104c-.048.058-.088.124-.137.18a7.882 7.882 0 01-2.703 1.999 7.695 7.695 0 01-1.622.507c-.102.022-.204.026-.306.043-.419.066-.843.098-1.266.096-.148 0-.297 0-.447-.01a8.585 8.585 0 01-1.503-.209c-.09-.021-.178-.062-.27-.087-2.068-.57-3.986-1.914-5.397-3.841-.137-.185-.279-.366-.402-.561-.297-.465-.57-.954-.806-1.472l-.093-.194c-1.067-2.484-1.227-5.189-.437-7.62zM62.597 98.01c-2.083.16-4.194.183-6.25.071-1.247-.057-2.266.743-2.343 1.801-.075 1.063.851 1.976 2.067 2.043.949.048 1.902.075 2.864.075 1.345 0 2.71-.052 4.051-.157 1.217-.093 2.114-1.027 2.005-2.086-.107-1.058-1.192-1.857-2.394-1.747zM92.89 39.857A2.188 2.188 0 0094.808 41c.362 0 .729-.09 1.067-.283 1.058-.6 1.437-1.958.847-3.032a45.968 45.968 0 00-3.797-5.825 2.17 2.17 0 00-3.078-.39 2.253 2.253 0 00-.384 3.128 41.567 41.567 0 013.427 5.259zM95.134 44.771a36.99 36.99 0 011.65 5.584c.204.974 1.092 1.645 2.084 1.645.139 0 .284-.015.427-.043 1.151-.224 1.896-1.31 1.662-2.42a41.11 41.11 0 00-1.831-6.195c-.409-1.064-1.637-1.61-2.736-1.211-1.102.393-1.667 1.579-1.256 2.64zM73.131 95.162c-1.79.74-3.661 1.35-5.557 1.813-1.109.269-1.788 1.376-1.513 2.47A2.065 2.065 0 0068.07 101c.163 0 .33-.019.497-.06a42.16 42.16 0 006.165-2.009 2.032 2.032 0 001.107-2.674 2.072 2.072 0 00-2.707-1.095zM99.497 67.07c-1.078-.295-2.178.371-2.46 1.48a38.934 38.934 0 01-1.869 5.545c-.444 1.051.022 2.276 1.045 2.733.261.118.536.172.801.172.778 0 1.52-.467 1.85-1.248a42.96 42.96 0 002.068-6.15c.286-1.106-.36-2.242-1.435-2.532zM58.212 19.544h.045l.292-.002h.042c1.963 0 3.94.145 5.88.433.108.018.214.025.32.025 1.082 0 2.027-.813 2.185-1.943.178-1.243-.66-2.394-1.87-2.574A44.097 44.097 0 0058.591 15h-.046l-.379.002c-1.223.026-2.192 1.063-2.167 2.316.023 1.238 1.01 2.226 2.212 2.226zM85.478 29.436c.402.378.918.564 1.435.564.552 0 1.105-.215 1.516-.646a2.049 2.049 0 00-.08-2.918 42.793 42.793 0 00-5.078-4.07 2.096 2.096 0 00-2.901.526 2.05 2.05 0 00.53 2.87 38.77 38.77 0 014.578 3.674zM70.481 21.427a36.992 36.992 0 015.51 2.344c.296.154.606.229.914.229.776 0 1.524-.469 1.885-1.274.504-1.124.07-2.481-.97-3.026a40.433 40.433 0 00-6.11-2.6c-1.105-.366-2.277.307-2.616 1.5-.342 1.194.28 2.458 1.387 2.827zM101.957 56.105c-.048-1.182-.89-2.105-1.897-2.105-.03 0-.059 0-.09.002-1.05.055-1.86 1.092-1.81 2.31.025.659.04 1.324.04 1.993 0 1.427-.062 2.858-.19 4.257-.108 1.214.652 2.299 1.695 2.428.067.006.133.01.197.01.962 0 1.786-.845 1.89-1.979.138-1.55.208-3.137.208-4.716 0-.738-.015-1.471-.043-2.2zM95.013 79.315c-.988-.602-2.294-.316-2.92.64a38.17 38.17 0 01-3.573 4.648 2.004 2.004 0 00.208 2.893c.4.338.895.504 1.388.504.589 0 1.18-.238 1.596-.706a42.128 42.128 0 003.96-5.149c.626-.956.33-2.223-.66-2.83zM25.812 80.92a2.086 2.086 0 00-2.889-.567 2.066 2.066 0 00-.57 2.875 42.78 42.78 0 004.033 5.103c.41.446.972.669 1.532.669.504 0 1.01-.18 1.408-.547a2.066 2.066 0 00.125-2.928 38.412 38.412 0 01-3.639-4.605zM38.99 92.945a37.818 37.818 0 01-4.711-3.466c-.874-.756-2.141-.597-2.836.337-.697.937-.556 2.305.314 3.053a41.895 41.895 0 005.215 3.84c.316.198.664.291 1.006.291.699 0 1.377-.391 1.75-1.086.56-1.04.228-2.37-.739-2.97zM50.38 96.854a37.77 37.77 0 01-5.576-1.711 2.048 2.048 0 00-2.665 1.198c-.41 1.079.117 2.297 1.176 2.716 2 .789 4.079 1.426 6.183 1.895.149.033.297.048.444.048.947 0 1.8-.667 2.01-1.65.243-1.129-.461-2.25-1.572-2.496zM22.814 75.028a39.988 39.988 0 01-1.961-5.522c-.303-1.107-1.397-1.747-2.436-1.421-1.042.321-1.641 1.48-1.339 2.586a44.706 44.706 0 002.172 6.127c.334.757 1.042 1.202 1.784 1.202.278 0 .561-.063.83-.196.986-.489 1.41-1.733.95-2.776zM83.645 88.503a37.766 37.766 0 01-4.672 3.54c-.96.618-1.26 1.93-.672 2.937a2.019 2.019 0 001.74 1.02c.363 0 .73-.103 1.062-.314a41.908 41.908 0 005.176-3.92c.858-.762.966-2.109.239-3.01a1.978 1.978 0 00-2.873-.253zM34.202 27c.442 0 .891-.138 1.278-.424a41.167 41.167 0 015.318-3.312c1.082-.564 1.512-1.921.964-3.033-.55-1.106-1.871-1.55-2.958-.986a45.352 45.352 0 00-5.885 3.667c-.987.724-1.216 2.134-.506 3.146a2.187 2.187 0 001.79.942z"/><path d="M17.988 65.98c1.267-.156 2.159-1.264 1.992-2.475a40.191 40.191 0 01-.358-5.335l.012-.913c.025-1.223-.99-2.231-2.263-2.257-1.198.011-2.332.948-2.36 2.164L15 58.17c0 1.978.134 3.964.4 5.904.15 1.114 1.144 1.926 2.287 1.926.1 0 .2-.006.301-.02zM46.041 21c.211 0 .423-.035.635-.11a34.98 34.98 0 015.61-1.48c1.112-.197 1.867-1.338 1.688-2.545-.183-1.21-1.218-2.033-2.343-1.836-2.105.373-4.2.923-6.223 1.642-1.069.38-1.658 1.632-1.306 2.8.282.937 1.082 1.529 1.94 1.529zM47.623 24.051c-6.693 2.946-9.513 11.283-6.288 18.582 2.468 5.583 7.767 8.968 13.035 8.968 1.056 0 2.112-.152 3.143-.436 2.736 4.292 7.296 6.837 11.91 6.835 1.673 0 3.353-.333 4.952-1.035 6.696-2.948 9.516-11.285 6.289-18.582-1.548-3.5-4.243-6.254-7.592-7.754-2.806-1.259-5.795-1.505-8.593-.761-3.74-5.921-10.803-8.479-16.856-5.817zM45.27 40.903c-2.272-5.136-.437-10.94 4.087-12.928a8.073 8.073 0 013.269-.686c2.99 0 5.97 1.618 7.923 4.398l-.004.005c-.57.4-1.096.853-1.59 1.341l-.032.033a13.089 13.089 0 00-3.164 5.18c-.924 2.803-.944 5.84-.114 8.745.017.062.021.123.041.185-4.092.656-8.458-1.843-10.416-6.273zm26.04-6.364c2.377 1.065 4.304 3.046 5.42 5.574 2.273 5.136.438 10.937-4.089 12.929-4.523 1.991-10.057-.569-12.328-5.705-1.057-2.39-1.19-4.916-.607-7.147.044-.163.06-.333.112-.493.146-.459.347-.888.555-1.312.058-.116.096-.247.16-.358.238-.435.525-.833.83-1.22.063-.08.11-.171.177-.247a8.042 8.042 0 011.09-1.032c.07-.056.126-.13.2-.183.47-.356.981-.662 1.538-.911l.082-.036a8.003 8.003 0 013.2-.665c1.217-.005 2.458.265 3.66.806z"/></g></svg>