<svg width="43" height="50" xmlns="http://www.w3.org/2000/svg"><g fill="#FFF" fill-rule="nonzero"><path d="M21.364 11.745c.175.17.406.255.636.255.23 0 .461-.085.637-.255a.846.846 0 000-1.228 2.694 2.694 0 010-3.903 4.39 4.39 0 000-6.36.923.923 0 00-1.273 0 .846.846 0 000 1.229 2.696 2.696 0 010 3.903 4.389 4.389 0 000 6.36zM14 9.555c0 .825.314 1.601.886 2.184a.858.858 0 001.231 0 .904.904 0 000-1.258 1.309 1.309 0 01-.376-.926c0-.35.132-.678.375-.926a3.141 3.141 0 000-4.368.856.856 0 00-1.23 0 .903.903 0 000 1.258c.5.51.5 1.341 0 1.852A3.1 3.1 0 0014 9.555zM28 9.555c0 .825.314 1.601.886 2.184a.858.858 0 001.231 0 .905.905 0 000-1.258 1.308 1.308 0 01-.377-.926c0-.35.133-.678.376-.926a3.14 3.14 0 000-4.368.855.855 0 00-1.23 0 .903.903 0 000 1.258c.5.51.5 1.341 0 1.852A3.1 3.1 0 0028 9.555zM13.133 27a.85.85 0 00.51-.172.908.908 0 00.19-1.246c-.908-1.278-1.282-2.97-1.001-4.526a.891.891 0 00-.696-1.04.869.869 0 00-1.013.716 7.849 7.849 0 001.307 5.903c.17.237.434.365.703.365z"/><path d="M33.24 36.686c-.066-.011-.134-.016-.2-.025l.027-.042c.125.007.239.029.369.029 3.137 0 7.432-2.069 8.51-6.543.504-2.085.38-3.637-.376-4.748-.936-1.372-2.563-1.72-4.072-1.97.07-2.918-.53-5.073-1.07-6.118-.164-.314-.659-1.269-1.547-1.269H8.264c-.888 0-1.382.955-1.545 1.269-1.191 2.301-2.674 9.977 3.372 19.37-.064.009-.128.013-.192.024C6.202 37.308 0 38.862 0 42.006 0 46.04 10.65 50 21.5 50S43 46.04 43 42.006c0-3.12-6.115-4.671-9.76-5.32zm4.134-11.504c1.15.195 2.18.445 2.673 1.168.453.664.493 1.79.119 3.343-.793 3.286-3.767 4.828-6.012 5.113 1.99-3.581 2.91-6.862 3.22-9.624zm-28.86-7.393h26.118c.97 1.233 2.947 9.267-3.87 19.008h-.004l-.291.407c-.128.178-.253.355-.388.534-1.974 2.63-5.152 4.203-8.5 4.208h-.007c-3.35-.004-6.53-1.577-8.505-4.208-.139-.185-.269-.369-.4-.552l-.291-.41h-.006C5.569 27.043 7.544 19.02 8.514 17.788zM21.5 48.211c-11.364 0-19.67-4.081-19.67-6.205 0-.851 2.234-2.507 8.392-3.582a3.65 3.65 0 011.077-.03 11.834 11.834 0 001.17 1.434c.097.104.203.197.305.296.22.218.444.432.68.632.126.106.257.205.386.306.227.177.457.348.695.509.14.095.284.185.43.275.242.149.49.29.741.423.149.077.298.156.449.227.266.127.538.24.813.348.147.057.29.118.439.17.31.11.627.2.947.285.12.03.236.07.355.098a12.7 12.7 0 001.34.243v.097H23.098v-.094a12.53 12.53 0 001.336-.242c.129-.029.252-.071.38-.105.31-.083.619-.171.92-.276.156-.055.305-.118.458-.178.268-.105.533-.216.794-.34.157-.074.31-.154.463-.235a13.285 13.285 0 001.168-.697c.234-.157.459-.325.682-.5.134-.103.27-.204.398-.314.232-.196.45-.407.667-.62.104-.102.214-.199.316-.306.302-.32.589-.655.856-1.009.005-.008.013-.014.019-.021.096-.128.188-.255.279-.382a3.667 3.667 0 011.08.03c6.057 1.076 8.256 2.717 8.256 3.558 0 2.124-8.306 6.205-19.67 6.205z"/></g></svg>