<svg width="28" height="29" xmlns="http://www.w3.org/2000/svg"><path d="M27.846 13.233l-4.191-4.006V2.666h-4.828v1.948L14 0 .154 13.233a.508.508 0 00-.025.702c.181.201.487.212.683.026l1.602-1.531V29H25.587V12.43l1.602 1.53a.473.473 0 00.682-.025.507.507 0 00-.025-.702zm-8.053-9.574h2.897v4.646l-2.897-2.768V3.659zm-8.69 24.347V17.541a.46.46 0 01.453-.466h4.888a.46.46 0 01.452.466v10.465h-5.793zm13.518 0h-6.76V17.541c0-.805-.635-1.46-1.417-1.46h-4.888c-.783 0-1.418.655-1.418 1.46v10.465H3.379v-16.5l10.62-10.15 6.895 6.589 2.761 2.638.966.923v16.5z" fill="#5A5A5A" fill-rule="nonzero"/></svg>