<svg width="56" height="50" xmlns="http://www.w3.org/2000/svg"><g fill="#FFF" fill-rule="nonzero"><path d="M53.053 18.554h-2.925c.05-.562.22-1.109.511-1.595l1.602-2.669c.315-.524.323-1.18.02-1.713-.201-.35-.522-.6-.89-.738a1.698 1.698 0 00-.226-.752l-.128-.171c-1.155-1.226-4.034-4.08-5.824-4.08h-6.877V5.86c0-3.232-2.644-5.86-5.895-5.86h-9.824c-3.251 0-5.895 2.628-5.895 5.86v.976h-5.895c-1.79 0-4.668 2.854-5.823 4.08l-.128.17a1.71 1.71 0 00-.225.753c-.368.137-.69.388-.89.738a1.697 1.697 0 00.019 1.713l1.602 2.668c.292.487.46 1.034.51 1.597H2.949A2.941 2.941 0 000 21.485c0 1.615 1.322 2.929 2.948 2.929h2.947v19.53c0 .25.14 1.331.209 1.552C6.793 48.084 9.154 50 11.959 50H44.04c3.344 0 6.064-2.717 6.064-6.055V24.414h2.947c1.625 0 2.948-1.314 2.948-2.93a2.942 2.942 0 00-2.947-2.93zm-7.86-9.765c.549.007 2.272 1.324 3.873 2.93H34.308a6.83 6.83 0 00.079-.977c0-.678-.104-1.334-.29-1.953h11.096zm-13.275 4.067c-.07.142-.144.28-.226.413a4.405 4.405 0 01-.208.318 4.842 4.842 0 01-.348.419c-.067.074-.13.155-.201.225a4.82 4.82 0 01-.63.516c-.08.056-.169.1-.252.15-.163.098-.328.19-.5.27a4.613 4.613 0 01-.313.126c-.178.068-.36.124-.547.17-.097.024-.194.051-.294.07a4.716 4.716 0 01-.89.092c-.304 0-.6-.036-.888-.09-.1-.018-.196-.045-.294-.07a5.04 5.04 0 01-.547-.169c-.105-.04-.21-.08-.312-.126a5.09 5.09 0 01-.5-.27c-.084-.05-.173-.094-.253-.15a4.971 4.971 0 01-.63-.517c-.071-.07-.133-.15-.201-.224a5.165 5.165 0 01-.348-.42c-.074-.1-.14-.21-.207-.317a4.894 4.894 0 01-.226-.413 4.82 4.82 0 01-.506-2.117 4.825 4.825 0 01.93-2.836c.133-.184.276-.358.433-.522.048-.05.096-.1.146-.149a4.903 4.903 0 01.798-.616c.18-.113.368-.215.563-.304.062-.029.122-.063.186-.089a4.84 4.84 0 01.993-.281c.282-.05.569-.087.865-.087.297 0 .583.037.865.087a4.905 4.905 0 01.993.281c.064.026.124.06.186.089a4.938 4.938 0 01.81.467c.194.14.38.288.551.453.05.048.098.1.146.15a4.89 4.89 0 01.594.758c.477.755.765 1.642.765 2.6a4.819 4.819 0 01-.503 2.113zM18.667 5.86c0-2.155 1.762-3.907 3.93-3.907h9.824c2.168 0 3.93 1.752 3.93 3.907v.976h-3.205c-.01-.015-.024-.03-.036-.045a6.963 6.963 0 00-1.01-1.12c-.032-.03-.063-.06-.095-.088a6.877 6.877 0 00-2.02-1.209c-.037-.014-.076-.027-.113-.042a6.615 6.615 0 00-.79-.236 7.146 7.146 0 00-.606-.113c-.061-.008-.121-.02-.182-.027a6.972 6.972 0 00-.787-.048c-.266 0-.529.019-.787.048-.06.007-.121.02-.182.027-.205.03-.407.066-.607.113a7.007 7.007 0 00-.79.237l-.113.041a6.881 6.881 0 00-2.019 1.21c-.032.028-.063.058-.096.086a7.21 7.21 0 00-.461.452c-.038.041-.076.081-.113.123-.154.175-.3.357-.435.546-.01.016-.024.03-.036.045h-3.201V5.86zm-7.86 2.93h10.115a6.754 6.754 0 00-.29 1.952c0 .332.032.656.079.977H6.935c1.583-1.584 3.333-2.923 3.872-2.93zm-7.86 13.67a.98.98 0 01-.982-.976.98.98 0 01.983-.977h2.947v1.954H2.948zm45.194 21.485a4.106 4.106 0 01-4.1 4.102H11.96c-1.55 0-2.886-.876-3.582-2.15h8.325a.98.98 0 00.982-.976.98.98 0 00-.982-.976H7.86V41.99h5.894a.979.979 0 00.983-.976.98.98 0 00-.983-.977H7.86v-1.953h3.93a.98.98 0 00.982-.977.98.98 0 00-.982-.976H7.86V18.554h-.023a5.68 5.68 0 00-.787-2.596l-1.373-2.286H21.3c.008.017.018.03.027.046.269.55.607 1.057 1.008 1.513a6.698 6.698 0 00.694.686l.04.036c.23.194.474.372.727.533.031.02.062.037.094.057.23.142.472.272.72.388.032.014.063.031.094.045.275.122.557.228.848.314.028.008.056.014.082.02a6.929 6.929 0 00.984.202c.292.038.588.064.89.064a6.93 6.93 0 001.102-.096c.263-.042.52-.098.773-.17.028-.007.055-.012.082-.02a6.77 6.77 0 00.848-.314l.094-.045c.248-.116.488-.246.72-.388.03-.02.063-.037.094-.057.254-.163.497-.34.726-.533l.041-.036c.211-.181.41-.376.598-.581l.097-.105c.4-.456.738-.964 1.008-1.513l.026-.046h16.607l-1.372 2.287a5.667 5.667 0 00-.788 2.596h-.023v25.39h-.001zm4.912-21.484h-2.947v-1.954h2.947a.98.98 0 01.983.977.98.98 0 01-.983.977z"/><path d="M26 10.398L29.399 7 31 8.602 27.601 12z"/></g></svg>