<svg width="47" height="50" xmlns="http://www.w3.org/2000/svg"><path d="M47 17.924v-.943c0-4.434-2.647-6.604-4.537-8.208-.19-.188-.567-.471-.851-.848-.19-.19-.19-.472-.19-.661 0-.472.284-.943.662-1.226l.095-.095.284-.283s.094-.094.094-.188c.095-.095.19-.283.284-.378 0-.094.095-.094.095-.189.094-.188.094-.283.188-.471V4.34c0-.19.095-.378.095-.66v-.85C43.22 1.226 41.99 0 40.383 0H29.985c-1.607 0-2.836 1.226-2.836 2.83v.943c0 .19 0 .472.094.661v.094c0 .19.095.283.19.472l.094.094c.095.189.189.284.284.378l.094.094c.095.189.284.283.473.378.378.283.661.754.756 1.132 0 .283 0 .566-.19.754-.188.19-.283.283-.283.378-.189.188-.472.377-.661.566-1.986 1.603-4.632 3.773-4.632 8.207v10.66c-1.702-1.414-2.269-2.64-2.458-3.396.945-.471 1.607-1.415 1.607-2.547 0-1.603-1.229-2.83-2.836-2.83H8.337c-1.607 0-2.836 1.226-2.836 2.83 0 1.132.756 2.17 1.702 2.642-.19.754-.85 1.98-2.458 3.301C1.06 30.755-.17 35.19.02 39.151v.283c0 .472.094.849.189 1.32 0 .095 0 .19.094.378l.284 1.132v.19c.095.282.189.66.284.942 0 .095.094.283.189.378v.094l.189.472C2.855 47.83 5.88 50 9.472 50h9.075c2.08 0 3.97-.755 5.577-2.075C24.975 49.15 26.298 50 27.905 50h14.558C44.92 50 47 48.019 47 45.472V17.924zM2.476 42.358c-.094-.283-.188-.471-.188-.754-.095-.19-.095-.284-.095-.472 0-.189-.095-.283-.095-.472-.094-.754-.189-1.51-.189-2.264 0-.849.095-1.792.284-2.736v-.094c0-.189.095-.378.095-.66 0-.095.094-.284.094-.378.094-.189.094-.377.19-.566.094-.188.188-.377.188-.566 0-.094.095-.189.095-.283h8.035c.567 0 .945.377.945.944v7.547c0 .566-.378.943-.945.943H2.382c.19-.095.094-.189.094-.189zm22.593 1.226c-.094.19-.189.472-.283.66 0 .095-.095.19-.095.19-.284.471-.567.943-.945 1.32l-.284.283c-1.323 1.416-3.025 2.17-4.916 2.17H9.472c-2.552 0-4.727-1.415-6.05-3.773h7.657c1.607 0 2.836-1.227 2.836-2.83v-7.548c0-1.603-1.229-2.83-2.836-2.83h-7.09c.567-.755 1.134-1.51 1.89-2.075 2.175-1.793 2.837-3.49 3.12-4.528h1.229c.567 0 .945-.378.945-.944s-.378-.943-.945-.943H8.243c-.567 0-.945-.378-.945-.944s.378-.943.945-.943h11.344c.566 0 .945.377.945.943s-.379.944-.945.944h-4.538c-.567 0-.945.377-.945.943s.378.944.945.944h3.876c.284 1.037.945 2.735 3.119 4.528.473.377.946.849 1.324 1.32l.094.189c.19.283.378.566.662.85.094.093.094.188.189.376.094.19.189.283.284.472.094.189.283.472.378.66v.095c1.04 2.264 1.323 4.906 1.04 7.264 0 .189-.095.472-.095.66 0 .189-.095.378-.095.566 0 .095 0 .189-.094.283-.095.472-.284.944-.473 1.415-.095 0-.095.095-.189.283zm20.04-3.018h-8.507V19.81h8.507v20.755zm0-22.642H34.711v24.528H45.11v3.02a2.64 2.64 0 01-2.647 2.64H27.905c-1.04 0-1.985-.66-2.363-1.603.661-.755 1.134-1.698 1.607-2.736 0 0 0-.094.094-.094 0-.095.095-.19.095-.283.094-.19.094-.378.19-.566v-.095c1.133-3.867.85-9.056-2.175-13.018V16.98c0-3.585 2.08-5.283 3.97-6.792.284-.19.473-.378.662-.566l.378-.378c.567-.66.756-1.415.662-2.264 0-.094-.095-.283-.095-.377h.378c.568 0 .946-.378.946-.944s-.378-.943-.946-.943H30.08c-.188 0-.472-.095-.566-.189l-.095-.094c-.095-.095-.095-.189-.19-.283v-.095c0-.094-.094-.188-.094-.283V2.83c0-.566.379-.944.945-.944h10.399c.567 0 .945.378.945.944v.943c0 .095 0 .283-.095.378 0 0 0 .094-.094.094-.094.094-.094.189-.19.189-.283.188-.472.283-.66.283h-5.389c-.567 0-.945.377-.945.943s.378.944.945.944h4.632c0 .188-.094.377-.094.566 0 .943.283 1.792 1.04 2.358.188.189.472.378.755.566 1.796 1.51 3.876 3.207 3.876 6.792v1.038h-.095z" fill="#FFF" fill-rule="nonzero"/></svg>