<svg width="47" height="50" xmlns="http://www.w3.org/2000/svg"><g fill="#FFF" fill-rule="nonzero"><path d="M44.535 2.546L42.007 0 25.371 16.758 0 42.313l5.536 4.867h-.001l.606.534.004.001 1.961 1.724c.384.374.869.561 1.464.561 1.222 0 2.911-.792 5.162-2.401 2.553-1.825 5.65-4.598 8.718-7.806 2.855-2.987 11.936-12.943 9.017-15.813l-2.095-2.132-.318-.324h-.001l-.52-.529c1.63-.357 4.19-1.168 6.621-2.983.19-.161 4.661-3.972 7.176-8.23l.055-.111c.04-.092.45-.885 2.037-.568l.355.071.297-.205c.084-.056.809-.588.913-1.716.127-1.357-.698-2.94-2.452-4.707zM31.267 25.217c.18.175.232 1.387-1.827 4.551-1.661 2.554-4.228 5.688-7.227 8.824-2.996 3.134-6.006 5.832-8.475 7.596-3.058 2.187-4.256 2.18-4.471 1.977l-.815-.717c4.338-1.65 11.123-8.601 12.644-10.197 1.485-1.56 7.947-8.513 9.37-12.85l.787.802.014.014zm-2.435-2.476l.204.206c.051 1.667-3.043 6.661-9.18 13.105-6.084 6.389-11.241 10.02-12.96 10.028l-.135-.118-.096-.084-4.152-3.652 22.85-23.015 3.47 3.53zM45.23 7.325c-2.027-.21-3.084.9-3.404 1.623-2.372 3.984-6.73 7.701-6.734 7.705-2.821 2.107-5.947 2.697-7.008 2.843l-1.501-1.512L42.007 2.446 43.32 3.77c1.756 1.768 1.983 2.806 1.963 3.268a.993.993 0 01-.054.288z"/><path d="M32 17a1 1 0 11-2 0 1 1 0 012 0zM42 6a1 1 0 11-2 0 1 1 0 012 0z"/></g></svg>