<svg width="33" height="28" xmlns="http://www.w3.org/2000/svg"><g fill="#5A5A5A" fill-rule="nonzero"><path d="M16.5 28a.498.498 0 01-.382-.178l-16-19A.5.5 0 01.1 8.2l6-8a.5.5 0 01.4-.2h20a.5.5 0 01.4.2l6 8a.5.5 0 01-.018.622l-16 19A.498.498 0 0116.5 28zM1.139 8.482L16.5 26.724 31.861 8.482 26.25 1H6.75L1.139 8.482z"/><path d="M32.5 9H.5a.5.5 0 110-1h32a.5.5 0 010 1z"/><path d="M16.5 28a.498.498 0 01-.476-.65l6-19a.5.5 0 11.952.301l-6 19A.5.5 0 0116.5 28z"/><path d="M16.5 28a.5.5 0 01-.476-.35l-6-18.999a.5.5 0 01.952-.301l6 18.999a.5.5 0 01-.475.651z"/><path d="M10.5 9a.5.5 0 01-.448-.276l-4-8a.501.501 0 01.895-.447l4 8A.5.5 0 0110.5 9z"/><path d="M10.5 9a.5.5 0 01-.4-.8l6-8a.5.5 0 01.8.6l-6 8a.501.501 0 01-.4.2z"/><path d="M22.5 9a.498.498 0 01-.4-.2l-6-8a.5.5 0 11.8-.6l6 8a.5.5 0 01-.4.8z"/><path d="M22.5 9a.5.5 0 01-.447-.724l4-8a.5.5 0 01.894.448l-4 7.999A.502.502 0 0122.5 9z"/></g></svg>