<svg width="71" height="71" xmlns="http://www.w3.org/2000/svg"><g fill="#C5C1C1" fill-rule="nonzero"><path d="M35.5 0C15.926 0 0 15.926 0 35.5 0 55.074 15.926 71 35.5 71 55.074 71 71 55.074 71 35.5 71 15.926 55.074 0 35.5 0zm0 68.418c-18.151 0-32.918-14.767-32.918-32.918S17.349 2.582 35.5 2.582 68.418 17.349 68.418 35.5c0 18.152-14.767 32.918-32.918 32.918z"/><path d="M40.79 35.297l-9.296 7.384a1.282 1.282 0 00-.188 1.841 1.37 1.37 0 001.046.478c.302 0 .604-.097.857-.296l9.297-7.384c.577-.46.66-1.282.188-1.842a1.385 1.385 0 00-1.903-.181zM42.506 42.32c.577-.46.66-1.282.188-1.843a1.388 1.388 0 00-1.903-.182l-9.297 7.385a1.282 1.282 0 00-.188 1.842c.268.314.656.478 1.046.478.302 0 .605-.097.857-.297l9.297-7.383z"/><path d="M45.93 39.298l-7.467 6.368a1.355 1.355 0 00-.176 1.853 1.234 1.234 0 001.783.182l7.467-6.368c.54-.462.619-1.29.176-1.853a1.237 1.237 0 00-1.783-.182zM45.79 46.297l-9.296 7.383a1.282 1.282 0 00-.188 1.842c.267.314.656.478 1.046.478.302 0 .604-.097.857-.297l9.297-7.383c.578-.46.66-1.283.188-1.842a1.384 1.384 0 00-1.903-.181zM9.43 30.703a1.3 1.3 0 001.283 1.536 1.3 1.3 0 00.838-.325c.9.966 1.97 1.703 3.129 2.179.038.02.063.05.103.066.08.032.165.043.245.072.176.064.352.122.53.173-1.967 2.384-2.501 5.947-1.074 9.179 1.488 3.369 4.676 5.418 7.9 5.417 1.013 0 2.03-.202 2.998-.628 4.055-1.787 5.763-6.841 3.809-11.265-.937-2.121-2.57-3.791-4.597-4.701a8.396 8.396 0 00-1.133-.404c.148-.18.29-.366.422-.56.04-.056.075-.116.113-.175.146-.227.282-.464.407-.708.041-.083.085-.164.124-.248a8.31 8.31 0 00.37-.921l.002-.007c.019-.058.03-.12.049-.177.084-.276.154-.555.21-.837.009-.048.027-.094.034-.142.005-.018-.003-.034 0-.053a9.126 9.126 0 00-.29-4.306c-.002-.012 0-.022-.003-.032-.009-.025-.02-.048-.028-.073a9.782 9.782 0 00-.351-.935 9.7 9.7 0 00-.82-1.485c-.241-.359-.524-.678-.807-.995-.084-.094-.149-.202-.237-.292l-.002-.001a8.903 8.903 0 00-2.732-1.926 8.405 8.405 0 00-.821-.317 1.296 1.296 0 00-.266-1.423 1.302 1.302 0 00-1.84-.016c-.347.341-.674.703-1.003 1.065-.812.07-1.61.269-2.37.604-1.988.876-3.475 2.547-4.186 4.706-.68 2.07-.56 4.35.33 6.438-.12.501-.241 1.004-.335 1.517zm17.379 7.452c1.375 3.114.264 6.63-2.475 7.837-2.74 1.208-6.092-.344-7.466-3.458-1.375-3.114-.265-6.632 2.475-7.838a4.856 4.856 0 011.964-.41c.738 0 1.491.163 2.22.49 1.44.647 2.605 1.848 3.282 3.379zM11.91 23.557c.476-1.449 1.458-2.566 2.762-3.139a4.848 4.848 0 011.871-.401h.039c.13.001.246.018.37.026a5.006 5.006 0 01.998.156c.303.079.605.166.903.3.72.324 1.37.785 1.926 1.355.003.003.004.008.007.01a6.8 6.8 0 011.35 2.012c.675 1.528.776 3.192.288 4.686-.006.022-.018.042-.024.064a5.61 5.61 0 01-.507 1.082c-.143.24-.302.465-.477.675-.03.035-.055.076-.085.11a4.865 4.865 0 01-1.67 1.22 4.79 4.79 0 01-1.002.311c-.062.013-.126.016-.189.026-.258.04-.52.06-.782.059-.09 0-.183 0-.275-.006a5.356 5.356 0 01-.929-.128c-.055-.013-.11-.038-.166-.053-1.278-.349-2.463-1.17-3.334-2.347-.085-.113-.172-.224-.249-.344a7.183 7.183 0 01-.497-.899l-.058-.118c-.659-1.518-.758-3.171-.27-4.657zM38.47 59.008c-1.325.12-2.668.136-3.976.053-.794-.043-1.442.557-1.491 1.35-.048.798.541 1.482 1.315 1.533a28.42 28.42 0 004.4-.061c.775-.07 1.345-.771 1.276-1.565-.068-.794-.758-1.393-1.523-1.31zM56.431 24.314c.252.439.718.686 1.2.686.225 0 .454-.054.666-.17a1.32 1.32 0 00.53-1.82 27.492 27.492 0 00-2.374-3.494 1.394 1.394 0 00-1.924-.234 1.315 1.315 0 00-.24 1.877 24.86 24.86 0 012.142 3.155zM58.09 27.663a20.547 20.547 0 011.1 3.35c.135.584.727.987 1.389.987.092 0 .189-.009.284-.026.768-.134 1.264-.786 1.108-1.452a22.837 22.837 0 00-1.22-3.717c-.273-.638-1.092-.966-1.824-.727-.735.237-1.111.948-.838 1.585zM45.279 57.108a21.48 21.48 0 01-3.335 1.208c-.665.18-1.072.918-.907 1.648.139.62.647 1.036 1.204 1.036.098 0 .199-.013.298-.04a23.546 23.546 0 003.7-1.34c.632-.29.93-1.087.664-1.782-.263-.693-.992-1.025-1.624-.73zM59.998 41.042c-.719-.177-1.452.223-1.64.888a21.788 21.788 0 01-1.246 3.327c-.296.63.015 1.366.696 1.64.175.07.358.103.535.103.519 0 1.013-.28 1.233-.749a24.039 24.039 0 001.379-3.69c.19-.663-.24-1.345-.957-1.519zM35.408 11.726h.028l.186-.001h.027c1.25 0 2.507.087 3.741.26.07.011.137.015.205.015.688 0 1.289-.488 1.39-1.166.113-.745-.42-1.436-1.19-1.544A29.73 29.73 0 0035.65 9h-.03l-.24.001c-.78.016-1.396.638-1.38 1.39.014.743.642 1.335 1.408 1.335zM52.043 17.648c.224.236.51.352.797.352a1.1 1.1 0 00.843-.404c.44-.517.42-1.333-.045-1.823a24.51 24.51 0 00-2.82-2.544c-.528-.404-1.25-.26-1.612.328-.364.586-.232 1.39.294 1.794a22.212 22.212 0 012.543 2.297zM42.889 12.53c1.127.356 2.24.807 3.306 1.34.177.087.363.13.548.13.466 0 .915-.268 1.13-.728.303-.642.043-1.418-.58-1.73a24.927 24.927 0 00-3.668-1.485c-.662-.209-1.365.176-1.569.858-.205.681.168 1.404.833 1.615zM61.968 34.34A1.418 1.418 0 0060.477 33a1.412 1.412 0 00-1.357 1.47c.019.42.03.843.03 1.268 0 .909-.047 1.82-.142 2.71A1.414 1.414 0 0060.427 40a1.42 1.42 0 001.416-1.26 28.723 28.723 0 00.125-4.4zM57.383 48.175c-.617-.334-1.434-.175-1.825.355a21.706 21.706 0 01-2.233 2.583c-.48.474-.422 1.194.13 1.607.25.188.56.28.868.28.368 0 .737-.132.997-.392a23.96 23.96 0 002.475-2.86c.391-.532.206-1.236-.412-1.573zM15.383 49.511c-.402-.53-1.211-.67-1.806-.315-.597.354-.757 1.07-.356 1.598.754.996 1.602 1.95 2.52 2.834.257.248.608.372.958.372.315 0 .63-.1.88-.304.528-.43.565-1.159.078-1.627-.83-.799-1.594-1.659-2.274-2.558zM23.364 55.965a21.35 21.35 0 01-3.089-1.415c-.591-.33-1.246-.053-1.467.611-.223.666.075 1.472.662 1.798 1.11.62 2.263 1.148 3.42 1.569.202.074.403.08.587.03.375-.1.675-.434.763-.907.132-.708-.26-1.463-.876-1.686zM31.028 58.236a21.022 21.022 0 01-3.345-1.14c-.64-.28-1.353.079-1.6.798-.245.72.07 1.532.706 1.81 1.2.526 2.447.951 3.71 1.264.09.022.178.032.266.032.568 0 1.08-.445 1.206-1.1.146-.753-.277-1.5-.943-1.664zM13.876 45.217a22.456 22.456 0 01-1.307-3.313c-.202-.665-.931-1.048-1.624-.853-.695.193-1.094.888-.893 1.551.383 1.256.87 2.492 1.448 3.677.223.454.695.721 1.189.721.186 0 .374-.038.554-.118.657-.293.94-1.04.633-1.665zM51.136 53.315c-.811.81-1.684 1.555-2.595 2.212-.533.386-.701 1.206-.374 1.835.213.411.587.638.967.638.201 0 .405-.064.59-.197a23.774 23.774 0 002.876-2.45c.476-.476.536-1.317.132-1.88s-1.116-.633-1.596-.158zM20.321 16c.266 0 .535-.086.767-.265a24.564 24.564 0 013.191-2.07c.649-.352.907-1.2.578-1.895-.33-.692-1.123-.97-1.775-.617a27.062 27.062 0 00-3.53 2.292c-.593.453-.73 1.333-.304 1.966.259.383.662.589 1.073.589z"/><path d="M10.793 39.988a1.4 1.4 0 001.195-1.576 27.103 27.103 0 01-.215-3.395l.007-.58A1.4 1.4 0 0010.423 33c-.719.007-1.4.603-1.416 1.377l-.007.64c0 1.26.08 2.523.24 3.757a1.393 1.393 0 001.553 1.214zM28.225 13c.126 0 .253-.024.38-.074a19.329 19.329 0 013.366-.985c.668-.132 1.12-.893 1.013-1.698-.11-.806-.73-1.355-1.405-1.224-1.263.249-2.52.616-3.734 1.095-.642.254-.995 1.088-.784 1.866.17.625.65 1.02 1.164 1.02zM29.538 14.63c-3.985 1.768-5.663 6.77-3.743 11.15 1.468 3.35 4.623 5.38 7.758 5.38.63 0 1.257-.09 1.872-.26 1.628 2.574 4.343 4.101 7.09 4.1.994 0 1.994-.2 2.946-.621 3.986-1.769 5.665-6.771 3.744-11.15-.922-2.099-2.526-3.752-4.519-4.652-1.67-.755-3.45-.903-5.115-.456-2.226-3.553-6.43-5.087-10.033-3.49zm-1.402 10.112c-1.352-3.082-.26-6.564 2.433-7.757a4.773 4.773 0 011.946-.412c1.78 0 3.553.971 4.716 2.64l-.002.002a7.419 7.419 0 00-.966.824 7.864 7.864 0 00-1.883 3.108c-.55 1.682-.562 3.505-.068 5.248.01.037.013.073.024.11-2.435.394-5.034-1.105-6.2-3.763zm15.5-3.819c1.415.64 2.562 1.828 3.226 3.345 1.353 3.081.26 6.562-2.433 7.757-2.693 1.195-5.987-.341-7.338-3.423a6.566 6.566 0 01-.362-4.288c.026-.098.036-.2.067-.296.087-.275.206-.533.33-.787.035-.07.058-.148.095-.215.142-.26.313-.5.495-.731.037-.048.065-.104.105-.149.193-.229.416-.43.648-.62.042-.033.076-.077.12-.109a4.68 4.68 0 01.915-.547l.049-.021a4.731 4.731 0 011.904-.4 5.224 5.224 0 012.18.484z"/><g><path d="M35.5 0C15.926 0 0 15.926 0 35.5 0 55.074 15.926 71 35.5 71 55.074 71 71 55.074 71 35.5 71 15.926 55.074 0 35.5 0zm0 68.418c-18.151 0-32.918-14.767-32.918-32.918S17.349 2.582 35.5 2.582 68.418 17.349 68.418 35.5c0 18.152-14.767 32.918-32.918 32.918z"/><path d="M40.79 35.297l-9.296 7.384a1.282 1.282 0 00-.188 1.841 1.37 1.37 0 001.046.478c.302 0 .604-.097.857-.296l9.297-7.384c.577-.46.66-1.282.188-1.842a1.385 1.385 0 00-1.903-.181zM42.506 42.32c.577-.46.66-1.282.188-1.843a1.388 1.388 0 00-1.903-.182l-9.297 7.385a1.282 1.282 0 00-.188 1.842c.268.314.656.478 1.046.478.302 0 .605-.097.857-.297l9.297-7.383z"/><path d="M45.93 39.298l-7.467 6.368a1.355 1.355 0 00-.176 1.853 1.234 1.234 0 001.783.182l7.467-6.368c.54-.462.619-1.29.176-1.853a1.237 1.237 0 00-1.783-.182zM45.79 46.297l-9.296 7.383a1.282 1.282 0 00-.188 1.842c.267.314.656.478 1.046.478.302 0 .604-.097.857-.297l9.297-7.383c.578-.46.66-1.283.188-1.842a1.384 1.384 0 00-1.903-.181zM9.43 30.703a1.3 1.3 0 001.283 1.536 1.3 1.3 0 00.838-.325c.9.966 1.97 1.703 3.129 2.179.038.02.063.05.103.066.08.032.165.043.245.072.176.064.352.122.53.173-1.967 2.384-2.501 5.947-1.074 9.179 1.488 3.369 4.676 5.418 7.9 5.417 1.013 0 2.03-.202 2.998-.628 4.055-1.787 5.763-6.841 3.809-11.265-.937-2.121-2.57-3.791-4.597-4.701a8.396 8.396 0 00-1.133-.404c.148-.18.29-.366.422-.56.04-.056.075-.116.113-.175.146-.227.282-.464.407-.708.041-.083.085-.164.124-.248a8.31 8.31 0 00.37-.921l.002-.007c.019-.058.03-.12.049-.177.084-.276.154-.555.21-.837.009-.048.027-.094.034-.142.005-.018-.003-.034 0-.053a9.126 9.126 0 00-.29-4.306c-.002-.012 0-.022-.003-.032-.009-.025-.02-.048-.028-.073a9.782 9.782 0 00-.351-.935 9.7 9.7 0 00-.82-1.485c-.241-.359-.524-.678-.807-.995-.084-.094-.149-.202-.237-.292l-.002-.001a8.903 8.903 0 00-2.732-1.926 8.405 8.405 0 00-.821-.317 1.296 1.296 0 00-.266-1.423 1.302 1.302 0 00-1.84-.016c-.347.341-.674.703-1.003 1.065-.812.07-1.61.269-2.37.604-1.988.876-3.475 2.547-4.186 4.706-.68 2.07-.56 4.35.33 6.438-.12.501-.241 1.004-.335 1.517zm17.379 7.452c1.375 3.114.264 6.63-2.475 7.837-2.74 1.208-6.092-.344-7.466-3.458-1.375-3.114-.265-6.632 2.475-7.838a4.856 4.856 0 011.964-.41c.738 0 1.491.163 2.22.49 1.44.647 2.605 1.848 3.282 3.379zM11.91 23.557c.476-1.449 1.458-2.566 2.762-3.139a4.848 4.848 0 011.871-.401h.039c.13.001.246.018.37.026a5.006 5.006 0 01.998.156c.303.079.605.166.903.3.72.324 1.37.785 1.926 1.355.003.003.004.008.007.01a6.8 6.8 0 011.35 2.012c.675 1.528.776 3.192.288 4.686-.006.022-.018.042-.024.064a5.61 5.61 0 01-.507 1.082c-.143.24-.302.465-.477.675-.03.035-.055.076-.085.11a4.865 4.865 0 01-1.67 1.22 4.79 4.79 0 01-1.002.311c-.062.013-.126.016-.189.026-.258.04-.52.06-.782.059-.09 0-.183 0-.275-.006a5.356 5.356 0 01-.929-.128c-.055-.013-.11-.038-.166-.053-1.278-.349-2.463-1.17-3.334-2.347-.085-.113-.172-.224-.249-.344a7.183 7.183 0 01-.497-.899l-.058-.118c-.659-1.518-.758-3.171-.27-4.657zM38.47 59.008c-1.325.12-2.668.136-3.976.053-.794-.043-1.442.557-1.491 1.35-.048.798.541 1.482 1.315 1.533a28.42 28.42 0 004.4-.061c.775-.07 1.345-.771 1.276-1.565-.068-.794-.758-1.393-1.523-1.31zM56.431 24.314c.252.439.718.686 1.2.686.225 0 .454-.054.666-.17a1.32 1.32 0 00.53-1.82 27.492 27.492 0 00-2.374-3.494 1.394 1.394 0 00-1.924-.234 1.315 1.315 0 00-.24 1.877 24.86 24.86 0 012.142 3.155zM58.09 27.663a20.547 20.547 0 011.1 3.35c.135.584.727.987 1.389.987.092 0 .189-.009.284-.026.768-.134 1.264-.786 1.108-1.452a22.837 22.837 0 00-1.22-3.717c-.273-.638-1.092-.966-1.824-.727-.735.237-1.111.948-.838 1.585zM45.279 57.108a21.48 21.48 0 01-3.335 1.208c-.665.18-1.072.918-.907 1.648.139.62.647 1.036 1.204 1.036.098 0 .199-.013.298-.04a23.546 23.546 0 003.7-1.34c.632-.29.93-1.087.664-1.782-.263-.693-.992-1.025-1.624-.73zM59.998 41.042c-.719-.177-1.452.223-1.64.888a21.788 21.788 0 01-1.246 3.327c-.296.63.015 1.366.696 1.64.175.07.358.103.535.103.519 0 1.013-.28 1.233-.749a24.039 24.039 0 001.379-3.69c.19-.663-.24-1.345-.957-1.519zM35.408 11.726h.028l.186-.001h.027c1.25 0 2.507.087 3.741.26.07.011.137.015.205.015.688 0 1.289-.488 1.39-1.166.113-.745-.42-1.436-1.19-1.544A29.73 29.73 0 0035.65 9h-.03l-.24.001c-.78.016-1.396.638-1.38 1.39.014.743.642 1.335 1.408 1.335zM52.043 17.648c.224.236.51.352.797.352a1.1 1.1 0 00.843-.404c.44-.517.42-1.333-.045-1.823a24.51 24.51 0 00-2.82-2.544c-.528-.404-1.25-.26-1.612.328-.364.586-.232 1.39.294 1.794a22.212 22.212 0 012.543 2.297zM42.889 12.53c1.127.356 2.24.807 3.306 1.34.177.087.363.13.548.13.466 0 .915-.268 1.13-.728.303-.642.043-1.418-.58-1.73a24.927 24.927 0 00-3.668-1.485c-.662-.209-1.365.176-1.569.858-.205.681.168 1.404.833 1.615zM61.968 34.34A1.418 1.418 0 0060.477 33a1.412 1.412 0 00-1.357 1.47c.019.42.03.843.03 1.268 0 .909-.047 1.82-.142 2.71A1.414 1.414 0 0060.427 40a1.42 1.42 0 001.416-1.26 28.723 28.723 0 00.125-4.4zM57.383 48.175c-.617-.334-1.434-.175-1.825.355a21.706 21.706 0 01-2.233 2.583c-.48.474-.422 1.194.13 1.607.25.188.56.28.868.28.368 0 .737-.132.997-.392a23.96 23.96 0 002.475-2.86c.391-.532.206-1.236-.412-1.573zM15.383 49.511c-.402-.53-1.211-.67-1.806-.315-.597.354-.757 1.07-.356 1.598.754.996 1.602 1.95 2.52 2.834.257.248.608.372.958.372.315 0 .63-.1.88-.304.528-.43.565-1.159.078-1.627-.83-.799-1.594-1.659-2.274-2.558zM23.364 55.965a21.35 21.35 0 01-3.089-1.415c-.591-.33-1.246-.053-1.467.611-.223.666.075 1.472.662 1.798 1.11.62 2.263 1.148 3.42 1.569.202.074.403.08.587.03.375-.1.675-.434.763-.907.132-.708-.26-1.463-.876-1.686zM31.028 58.236a21.022 21.022 0 01-3.345-1.14c-.64-.28-1.353.079-1.6.798-.245.72.07 1.532.706 1.81 1.2.526 2.447.951 3.71 1.264.09.022.178.032.266.032.568 0 1.08-.445 1.206-1.1.146-.753-.277-1.5-.943-1.664zM13.876 45.217a22.456 22.456 0 01-1.307-3.313c-.202-.665-.931-1.048-1.624-.853-.695.193-1.094.888-.893 1.551.383 1.256.87 2.492 1.448 3.677.223.454.695.721 1.189.721.186 0 .374-.038.554-.118.657-.293.94-1.04.633-1.665zM51.136 53.315c-.811.81-1.684 1.555-2.595 2.212-.533.386-.701 1.206-.374 1.835.213.411.587.638.967.638.201 0 .405-.064.59-.197a23.774 23.774 0 002.876-2.45c.476-.476.536-1.317.132-1.88s-1.116-.633-1.596-.158zM20.321 16c.266 0 .535-.086.767-.265a24.564 24.564 0 013.191-2.07c.649-.352.907-1.2.578-1.895-.33-.692-1.123-.97-1.775-.617a27.062 27.062 0 00-3.53 2.292c-.593.453-.73 1.333-.304 1.966.259.383.662.589 1.073.589z"/><path d="M10.793 39.988a1.4 1.4 0 001.195-1.576 27.103 27.103 0 01-.215-3.395l.007-.58A1.4 1.4 0 0010.423 33c-.719.007-1.4.603-1.416 1.377l-.007.64c0 1.26.08 2.523.24 3.757a1.393 1.393 0 001.553 1.214zM28.225 13c.126 0 .253-.024.38-.074a19.329 19.329 0 013.366-.985c.668-.132 1.12-.893 1.013-1.698-.11-.806-.73-1.355-1.405-1.224-1.263.249-2.52.616-3.734 1.095-.642.254-.995 1.088-.784 1.866.17.625.65 1.02 1.164 1.02zM29.538 14.63c-3.985 1.768-5.663 6.77-3.743 11.15 1.468 3.35 4.623 5.38 7.758 5.38.63 0 1.257-.09 1.872-.26 1.628 2.574 4.343 4.101 7.09 4.1.994 0 1.994-.2 2.946-.621 3.986-1.769 5.665-6.771 3.744-11.15-.922-2.099-2.526-3.752-4.519-4.652-1.67-.755-3.45-.903-5.115-.456-2.226-3.553-6.43-5.087-10.033-3.49zm-1.402 10.112c-1.352-3.082-.26-6.564 2.433-7.757a4.773 4.773 0 011.946-.412c1.78 0 3.553.971 4.716 2.64l-.002.002a7.419 7.419 0 00-.966.824 7.864 7.864 0 00-1.883 3.108c-.55 1.682-.562 3.505-.068 5.248.01.037.013.073.024.11-2.435.394-5.034-1.105-6.2-3.763zm15.5-3.819c1.415.64 2.562 1.828 3.226 3.345 1.353 3.081.26 6.562-2.433 7.757-2.693 1.195-5.987-.341-7.338-3.423a6.566 6.566 0 01-.362-4.288c.026-.098.036-.2.067-.296.087-.275.206-.533.33-.787.035-.07.058-.148.095-.215.142-.26.313-.5.495-.731.037-.048.065-.104.105-.149.193-.229.416-.43.648-.62.042-.033.076-.077.12-.109a4.68 4.68 0 01.915-.547l.049-.021a4.731 4.731 0 011.904-.4 5.224 5.224 0 012.18.484z"/></g></g></svg>